<?xml version="1.0" encoding="UTF-8"?>
<svg width="32px" height="32px" viewBox="0 0 32 32" version="1.1" xmlns="http://www.w3.org/2000/svg" xmlns:xlink="http://www.w3.org/1999/xlink">
    <title>social-mastodon</title>
    <g id="Page-1" stroke="none" stroke-width="1" fill="none" fill-rule="evenodd">
        <g id="Artboard" transform="translate(-161.000000, -69.000000)" fill="#FFFFFF" fill-rule="nonzero">
            <g id="social-mastodon" transform="translate(161.000000, 69.000000)">
                <path d="M16,0 C24.836,0 32,7.164 32,16 C32,24.836 24.836,32 16,32 C7.164,32 0,24.836 0,16 C0,7.164 7.164,0 16,0 Z M16.0335352,6.66666667 L15.9705008,6.66666667 C13.4121062,6.68766707 10.9517651,6.9646724 9.51698302,7.62268506 L9.49824664,7.63153201 C9.25252367,7.75078277 6.67243246,9.10128494 6.67243246,13.232793 C6.67243246,14.2258121 6.6534221,15.413835 6.68443901,16.6738592 C6.78749518,20.9169409 7.46286332,25.0990214 11.3880029,26.1370413 C13.1979895,26.6160506 14.7518365,26.7160525 16.0025183,26.6470511 C18.2717552,26.5210487 19.5454495,25.8380356 19.5454495,25.8380356 L19.4704086,24.1920039 C19.4704086,24.1920039 17.8485245,24.7030137 16.0275319,24.6410125 L15.6774027,24.6275976 C13.9835749,24.5533085 12.2996611,24.3041028 12.0263509,22.2319662 C11.9987616,22.026126 11.9853894,21.8186311 11.986329,21.6109542 C11.986329,21.6109542 13.7572944,22.0439626 16.0025183,22.1469646 C17.3752665,22.2099658 18.6619679,22.066963 19.9696807,21.91096 C22.4770475,21.6119543 24.6602375,20.0679245 24.934387,18.6568974 C25.2872043,16.8506751 25.329579,14.3988076 25.3330657,13.5428573 L25.3331366,13.3137526 C25.3330646,13.2961442 25.3329814,13.2812792 25.3329025,13.2692852 L25.332604,13.232793 C25.332604,9.10033255 22.7525128,7.75069206 22.5067899,7.63152553 L22.4880535,7.62268506 C21.0542719,6.9646724 18.5919297,6.68766707 16.0335352,6.66666667 Z M19.6033925,9.33333333 C20.5273965,9.33333333 21.2726258,9.62902122 21.8410892,10.2048825 C22.3924785,10.7807438 22.6666667,11.559206 22.6666667,12.5393566 L22.6666667,17.3333333 L20.5766098,17.3333333 L20.5766098,12.6798996 C20.5766098,11.6988364 20.1226426,11.2014602 19.2137038,11.2014602 C18.2093516,11.2014602 17.7061712,11.7919233 17.7061712,12.960073 L17.7061712,15.5071869 L15.6281665,15.5071869 L15.6281665,12.960073 C15.6281665,11.7919233 15.1249861,11.2014602 14.1196295,11.2014602 C13.2106908,11.2014602 12.7567236,11.699749 12.7567236,12.6798996 L12.7567236,17.3333333 L10.6666667,17.3333333 L10.6666667,12.5393566 C10.6666667,11.559206 10.9408548,10.7807438 11.4932485,10.2048825 C12.0617119,9.62902122 12.8059368,9.33333333 13.7309452,9.33333333 C14.8005803,9.33333333 15.6110925,9.70659366 16.1464122,10.4540269 L16.6666667,11.247091 L17.1879255,10.4540269 C17.7232452,9.70659366 18.5337574,9.33333333 19.6033925,9.33333333 Z" id="Shape"></path>
            </g>
        </g>
    </g>
</svg>