<?xml version="1.0" encoding="UTF-8"?>
<svg width="32px" height="32px" viewBox="0 0 32 32" version="1.1" xmlns="http://www.w3.org/2000/svg" xmlns:xlink="http://www.w3.org/1999/xlink">
    <title>social-linkedin</title>
    <g id="Page-1" stroke="none" stroke-width="1" fill="none" fill-rule="evenodd">
        <g id="Artboard" transform="translate(-272.000000, -69.000000)" fill="#FFFFFF" fill-rule="nonzero">
            <g id="social-linkedin" transform="translate(272.000000, 69.000000)">
                <path d="M16,0 C7.164,0 0,7.164 0,16 C0,24.836 7.164,32 16,32 C24.836,32 32,24.836 32,16 C32,7.164 24.836,0 16,0 Z M13.3333333,21.3333333 L10.6666667,21.3333333 L10.6666667,13.3333333 L13.3333333,13.3333333 L13.3333333,21.3333333 Z M12,12.1453333 C11.1906667,12.1453333 10.5333333,11.484 10.5333333,10.6666667 C10.5333333,9.85066667 11.1893333,9.188 12,9.188 C12.8106667,9.188 13.4666667,9.85066667 13.4666667,10.6666667 C13.4666667,11.484 12.8093333,12.1453333 12,12.1453333 Z M22.6666667,21.3333333 L20.0026667,21.3333333 L20.0026667,17.5186667 C20.0026667,15.0106667 17.3333333,15.2226667 17.3333333,17.5186667 L17.3333333,21.3333333 L14.6666667,21.3333333 L14.6666667,13.3333333 L17.3333333,13.3333333 L17.3333333,14.7906667 C18.496,12.636 22.6666667,12.476 22.6666667,16.8546667 L22.6666667,21.3333333 Z" id="Shape"></path>
            </g>
        </g>
    </g>
</svg>