<?xml version="1.0" encoding="UTF-8"?>
<svg width="32px" height="32px" viewBox="0 0 32 32" version="1.1" xmlns="http://www.w3.org/2000/svg" xmlns:xlink="http://www.w3.org/1999/xlink">
    <title>social-discord</title>
    <g id="Page-1" stroke="none" stroke-width="1" fill="none" fill-rule="evenodd">
        <g id="Artboard" transform="translate(-87.000000, -69.000000)" fill="#FFFFFF">
            <g id="social-discord" transform="translate(87.000000, 69.000000)">
                <path d="M16,0 C7.16533333,0 0,7.16266667 0,16 C0,24.836 7.16533333,32 16,32 C24.836,32 32,24.836 32,16 C32,7.16266667 24.836,0 16,0 Z M20.3306667,24.464 L19.836,22.7373333 L21.0306667,23.848 L22.16,24.8933333 L24.1666667,26.6666667 L24.1666667,9.92266667 C24.1666667,8.85866667 23.308,8 22.2533333,8 L9.74666667,8 C8.692,8 7.83333333,8.85866667 7.83333333,9.92266667 L7.83333333,22.5413333 C7.83333333,23.6053333 8.692,24.464 9.74666667,24.464 L20.3306667,24.464 L20.3306667,24.464 Z M18.6506667,20.1893333 L18.0346667,19.4333333 C19.2573333,19.088 19.724,18.3226667 19.724,18.3226667 C19.3413333,18.5746667 18.9773333,18.752 18.6506667,18.8733333 C18.184,19.0693333 17.736,19.2 17.2973333,19.2746667 C16.4013333,19.4426667 15.58,19.396 14.88,19.2653333 C14.348,19.1626667 13.8906667,19.0133333 13.508,18.864 C13.2933333,18.78 13.06,18.6773333 12.8266667,18.5466667 L12.7893333,18.5253333 L12.78,18.5213333 L12.7426667,18.5 L12.7053333,18.472 L12.444,18.3133333 C12.444,18.3133333 12.892,19.06 14.0773333,19.4146667 L13.452,20.1893333 C11.3893333,20.124 10.6053333,18.7706667 10.6053333,18.7706667 C10.6053333,15.7653333 11.9493333,13.3293333 11.9493333,13.3293333 C13.2933333,12.3213333 14.572,12.3492558 14.572,12.3492558 L14.6653333,12.4613333 C12.9853333,12.9466667 12.2106667,13.684 12.2106667,13.684 L12.7613333,13.4133333 C13.76,12.9746667 14.5533333,12.8533333 14.88,12.8253333 L15.0386667,12.8066667 C15.608,12.732 16.252,12.7133333 16.924,12.788 C17.8106667,12.8906667 18.7626667,13.152 19.7333333,13.684 C19.7333333,13.684 18.996,12.984 17.4093333,12.4986667 L17.54,12.3492558 C17.54,12.3492558 18.8186667,12.3213333 20.1626667,13.3293333 C20.1626667,13.3293333 21.5066667,15.7653333 21.5066667,18.7706667 C21.5066667,18.7706667 20.7426667,20.0733333 18.6506667,20.1893333 L18.6506667,20.1893333 Z M17.7173333,15.8306667 C17.1853333,15.8306667 16.7653333,16.2973333 16.7653333,16.8666667 C16.7653333,17.436 17.1946667,17.9026667 17.7173333,17.9026667 C18.2493333,17.9026667 18.6693333,17.436 18.6693333,16.8666667 C18.6693333,16.2973333 18.2493333,15.8306667 17.7173333,15.8306667 Z M14.3106667,15.8306667 C13.7786667,15.8306667 13.3586667,16.2973333 13.3586667,16.8666667 C13.3586667,17.436 13.788,17.9026667 14.3106667,17.9026667 C14.8426667,17.9026667 15.2626667,17.436 15.2626667,16.8666667 C15.272,16.2973333 14.8426667,15.8306667 14.3106667,15.8306667 Z" id="Shape"></path>
            </g>
        </g>
    </g>
</svg>