<?xml version="1.0" encoding="UTF-8"?>
<svg width="32px" height="32px" viewBox="0 0 32 32" version="1.1" xmlns="http://www.w3.org/2000/svg" xmlns:xlink="http://www.w3.org/1999/xlink">
    <title>social-rss</title>
    <g id="Page-1" stroke="none" stroke-width="1" fill="none" fill-rule="evenodd">
        <g id="Artboard" transform="translate(-309.000000, -69.000000)" fill="#FFFFFF" fill-rule="nonzero">
            <g id="social-rss" transform="translate(309.000000, 69.000000)">
                <path d="M16,0 C7.164,0 0,7.164 0,16 C0,24.836 7.164,32 16,32 C24.836,32 32,24.836 32,16 C32,7.164 24.836,0 16,0 Z M11.5013333,22.6666667 C10.3053333,22.6666667 9.33333333,21.6973333 9.33333333,20.5013333 C9.33333333,19.3053333 10.3053333,18.336 11.5013333,18.336 C12.6973333,18.336 13.6693333,19.3053333 13.6693333,20.5013333 C13.6693333,21.6973333 12.6973333,22.6666667 11.5013333,22.6666667 Z M16.6813333,22.6666667 C16.6413333,18.6373333 13.368,15.368 9.33333333,15.328 L9.33333333,12.12 C15.148,12.16 19.852,16.86 19.8933333,22.6666667 L16.6813333,22.6666667 Z M22.1226667,22.6666667 C22.1013333,15.604 16.3853333,9.90533333 9.33333333,9.87466667 L9.33333333,6.66666667 C18.164,6.69733333 25.3133333,13.8453333 25.3333333,22.6666667 L22.1226667,22.6666667 Z" id="Shape"></path>
            </g>
        </g>
    </g>
</svg>